<svg width="56" height="56" viewBox="0 0 56 56" fill="none" xmlns="http://www.w3.org/2000/svg">
<rect width="56" height="56" rx="6.22222" fill="#165DFF"/>
<g clip-path="url(#clip0_6111_202)">
<path d="M20.0909 14.2185C20.2768 13.9429 20.5875 13.7778 20.9199 13.7778H34.9041C35.7053 13.7778 36.1811 14.6729 35.733 15.3371L25.0275 31.2049C24.8415 31.4804 24.5309 31.6456 24.1985 31.6456H10.2143C9.4131 31.6456 8.93722 30.7505 9.38532 30.0863L20.0909 14.2185Z" fill="white"/>
<path d="M23.6379 35.3015C23.3055 35.3015 22.9949 35.4667 22.809 35.7423L19.4891 40.6629C19.041 41.3271 19.5169 42.2222 20.3181 42.2222H35.0801C35.4125 42.2222 35.7231 42.057 35.909 41.7815L46.6146 25.9137C47.0627 25.2495 46.5869 24.3544 45.7857 24.3544H35.5224C35.19 24.3544 34.8793 24.5196 34.6934 24.7951L27.9023 34.8608C27.7164 35.1364 27.4057 35.3015 27.0733 35.3015H23.6379Z" fill="white" fill-opacity="0.6"/>
</g>
<defs>
<clipPath id="clip0_6111_202">
<rect width="38.8889" height="30.3333" fill="white" transform="translate(8.55554 13.2222)"/>
</clipPath>
</defs>
</svg>
